<?xml version="1.0" encoding="utf-8"?>
<!-- Generator: Adobe Illustrator 22.1.0, SVG Export Plug-In . SVG Version: 6.00 Build 0)  -->
<svg version="1.1" id="Layer_1" xmlns="http://www.w3.org/2000/svg" xmlns:xlink="http://www.w3.org/1999/xlink" x="0px" y="0px"
	 viewBox="0 0 57 50" style="enable-background:new 0 0 57 50;" xml:space="preserve">
<style type="text/css">
	.st0{fill:#168EBE;}
</style>
<g id="_x39__1_">
	<g>
		<g>
			<g>
				<path class="st0" d="M23,43c-8.8,0-15.9-7.1-15.9-15.9c0-8.8,7.1-15.9,15.9-15.9c0.4,0,0.7,0,1.1,0c0.4-0.9,0.9-1.8,1.5-2.6
					c-0.2,0-0.5-0.1-0.7-0.1l-1.3-4.3l-1.2,0.2l-3.1,0.4l-1.2,0.2L18.1,9c-0.9,0.3-1.8,0.6-2.7,0.9l-3.2-3.1l-1,0.8L8.7,9.6l-1,0.7
					l2,3.6c-0.7,0.7-1.3,1.4-1.9,2.2l-4.3-1L3,16.2l-1.2,2.9l-0.5,1.1l3.4,2.1c-0.3,1-0.4,1.9-0.5,2.9l-4.1,1.2l0.2,1.2l0.4,3.1
					l0.2,1.2l4,0.1c0.3,1,0.6,1.9,1,2.8l-3,3.1l0.7,1l1.9,2.5l0.8,1l3.5-1.9c0.7,0.7,1.5,1.3,2.3,1.9l-1,4.3l1.1,0.5l2.9,1.2
					l1.1,0.5l2.1-3.5c0.9,0.2,1.9,0.4,2.8,0.5l1.3,4.3l1.2-0.2l3.1-0.4l1.2-0.2l0.1-4.1c0.9-0.3,1.8-0.6,2.7-0.9l3.2,3.1l1-0.8
					l2.5-1.9l1-0.8l-2-3.6c0.7-0.7,1.3-1.4,1.9-2.2l4.3,1L43,38l1.2-2.9l0.5-1.1l-3.4-2.1c0.1-0.2,0.1-0.4,0.1-0.6
					c-0.3,0-0.7,0-1-0.1c-0.7,0.2-1.4,0.3-2.1,0.3C36.3,38.2,30.3,43,23,43z"/>
			</g>
		</g>
		<path class="st0" d="M49.7,17.2c0,6.9-5.6,12.6-12.5,12.6c-6.9,0-12.6-5.6-12.6-12.6c0-6.8,5.8-12.6,11.2-12.6V1.8h-0.9
			c0,0-0.9,0-0.9-0.8C34,1.1,33.9,0,35,0h4.5c0,0,1,0.1,1,1c0,0-0.1,0.9-1,0.9h-0.9v2.8c2.5,0.2,3.8,1.1,5.6,2.1l1.4-1.4l-0.7-0.6
			l0.9-1L48,5.7l-0.9,0.9l-0.6-0.4l-1.3,1.5C48,9.9,49.7,13.3,49.7,17.2z M45,11.2c-0.1-0.1-1.3,0.9-1.3,0.9L43,11.3
			c0,0,0.9-0.8,1.2-1c-1.8-1.8-4.3-2.9-7-2.9c-2.7,0-5.2,1.1-7,2.9c0.1,0.2,1,0.9,1,0.9l-0.7,1c0,0-1-1.1-1.1-1
			c-1.1,1.5-1.9,3.6-2,5.6c0.8,0,1.9,0,1.9,0l0,0.9c0,0-1.9-0.1-1.9,0c0.1,2.1,0.8,3.9,2,5.5c0.4-0.3,1.2-0.9,1.2-0.9l0.7,0.7
			c0,0-1.1,1-1,1.1c0.3,0.3,0.6,0.6,0.9,0.8c1.5,1.2,3.5,1.9,5.6,2.1c0-0.7,0-1.9,0-1.9l0.9,0c0,0-0.1,1.9,0,1.9
			c2.5-0.1,4.8-1.2,6.5-2.8C44.3,24,43,23,43,23l0.6-0.8c0,0,1.3,1,1.4,0.9c1.2-1.5,1.9-3.4,2-5.5c0-0.1-1.9,0-1.9,0l0-0.9
			c0,0,1.6,0,2,0C46.9,14.6,46.1,12.7,45,11.2z M37.1,19.5c-0.8,0-1.4-0.6-1.4-1.4c0-1.4,1-1.4,1-1.4c0-1.8,0-7.9,0-7.9
			c0-0.3,0.2-0.5,0.5-0.5c0.3,0,0.5,0.2,0.5,0.5c0,0,0,6,0,7.8c0,0,0.9,0.1,0.9,1.5C38.6,18.9,37.9,19.5,37.1,19.5z"/>
	</g>
	<path class="st0" d="M56.7,32.3l-1.3-0.9c0-0.3,0-0.6,0-0.8c0-0.3-0.1-0.6-0.2-0.8l1.1-1.1c0.1-0.1,0.2-0.4,0-0.5l-0.7-1
		c-0.1-0.2-0.4-0.2-0.5-0.1l-1.4,0.7c-0.5-0.3-1-0.6-1.5-0.7l-0.4-1.5c0-0.2-0.2-0.3-0.4-0.3l-1.2,0.1c-0.2,0-0.4,0.2-0.4,0.4
		l-0.1,1.6c-0.5,0.2-1,0.6-1.4,1l-1.5-0.4c-0.2-0.1-0.4,0.1-0.5,0.2l-0.5,1.1c-0.1,0.2,0,0.4,0.2,0.5l1.3,0.9c0,0.3,0,0.6,0,0.8
		c0,0.3,0.1,0.6,0.2,0.8l-1.1,1.1c-0.1,0.1-0.2,0.4,0,0.5l0.7,1c0.1,0.2,0.4,0.2,0.5,0.1l1.4-0.7c0.5,0.3,1,0.6,1.5,0.7l0.4,1.5
		c0.1,0.2,0.3,0.3,0.4,0.3l1.2-0.1c0.2,0,0.4-0.2,0.4-0.4l0.1-1.6c0.5-0.2,1-0.6,1.4-1l1.5,0.4c0.2,0.1,0.4-0.1,0.5-0.2l0.5-1.1
		C56.9,32.6,56.9,32.4,56.7,32.3z M51.6,33.2c-1.2,0.1-2.2-0.7-2.4-1.9c-0.1-1.2,0.7-2.2,1.9-2.4c1.2-0.1,2.2,0.7,2.4,1.9
		C53.6,32,52.7,33,51.6,33.2z"/>
</g>
</svg>
